<svg xmlns="http://www.w3.org/2000/svg" style="display:none">
  <symbol id="i-search" viewBox="0 0 24 24" fill="none" stroke="currentColor" stroke-width="2" stroke-linecap="round" stroke-linejoin="round"><circle cx="11" cy="11" r="7"/><path d="M21 21l-4.3-4.3"/></symbol>
  <symbol id="i-vin" viewBox="0 0 24 24" fill="none" stroke="currentColor" stroke-width="2" stroke-linecap="round" stroke-linejoin="round"><rect x="3" y="7" width="18" height="10" rx="2"/><path d="M7 7v10M11 7v10M15 7v10"/></symbol>
  <symbol id="i-car" viewBox="0 0 24 24" fill="none" stroke="currentColor" stroke-width="2" stroke-linecap="round" stroke-linejoin="round"><path d="M3 13l2-5a2 2 0 0 1 1.9-1.4h10.2A2 2 0 0 1 19 8l2 5"/><path d="M3 13h18v4a1 1 0 0 1-1 1h-1a2 2 0 0 1-4 0H9a2 2 0 0 1-4 0H4a1 1 0 0 1-1-1z"/><circle cx="7.5" cy="16.5" r="1.2"/><circle cx="16.5" cy="16.5" r="1.2"/></symbol>
  <symbol id="i-drop" viewBox="0 0 24 24" fill="none" stroke="currentColor" stroke-width="2" stroke-linecap="round" stroke-linejoin="round"><path d="M12 3s6 6.5 6 11a6 6 0 0 1-12 0c0-4.5 6-11 6-11z"/></symbol>
  <symbol id="i-shield" viewBox="0 0 24 24" fill="none" stroke="currentColor" stroke-width="2" stroke-linecap="round" stroke-linejoin="round"><path d="M12 3l7 3v5c0 4.6-3 8.4-7 10-4-1.6-7-5.4-7-10V6z"/><path d="M9 12l2 2 4-4"/></symbol>
  <symbol id="i-ship" viewBox="0 0 24 24" fill="none" stroke="currentColor" stroke-width="2" stroke-linecap="round" stroke-linejoin="round"><rect x="1" y="7" width="13" height="9" rx="1"/><path d="M14 10h4l3 3v3h-7z"/><circle cx="6" cy="18" r="1.6"/><circle cx="17" cy="18" r="1.6"/></symbol>
  <symbol id="i-usa" viewBox="0 0 24 24" fill="none" stroke="currentColor" stroke-width="2" stroke-linecap="round" stroke-linejoin="round"><path d="M4 22V3"/><path d="M4 4h13l-2 3 2 3H4"/></symbol>
  <symbol id="i-check" viewBox="0 0 24 24" fill="none" stroke="currentColor" stroke-width="2.4" stroke-linecap="round" stroke-linejoin="round"><path d="M20 6L9 17l-5-5"/></symbol>
  <symbol id="i-arrow" viewBox="0 0 24 24" fill="none" stroke="currentColor" stroke-width="2" stroke-linecap="round" stroke-linejoin="round"><path d="M5 12h14M13 6l6 6-6 6"/></symbol>
  <symbol id="i-cart" viewBox="0 0 24 24" fill="none" stroke="currentColor" stroke-width="2" stroke-linecap="round" stroke-linejoin="round"><circle cx="9" cy="20" r="1.4"/><circle cx="18" cy="20" r="1.4"/><path d="M2 3h3l2.4 12.4a1.5 1.5 0 0 0 1.5 1.2h8.2a1.5 1.5 0 0 0 1.5-1.2L22 7H6"/></symbol>
  <symbol id="i-star" viewBox="0 0 24 24" fill="currentColor" stroke="none"><path d="M12 2l2.9 6 6.6.6-5 4.3 1.5 6.5L12 16.9 5.9 19.4 7.4 12.9l-5-4.3L9 8z"/></symbol>
  <symbol id="i-spark" viewBox="0 0 24 24" fill="none" stroke="currentColor" stroke-width="2" stroke-linecap="round" stroke-linejoin="round"><path d="M12 3v4M12 17v4M3 12h4M17 12h4M6 6l2.5 2.5M15.5 15.5L18 18M18 6l-2.5 2.5M8.5 15.5L6 18"/></symbol>
  <symbol id="i-bolt" viewBox="0 0 24 24" fill="none" stroke="currentColor" stroke-width="2" stroke-linecap="round" stroke-linejoin="round"><path d="M13 2L4 14h7l-1 8 9-12h-7z"/></symbol>
  <symbol id="i-palette" viewBox="0 0 24 24" fill="none" stroke="currentColor" stroke-width="2" stroke-linecap="round" stroke-linejoin="round"><path d="M12 3a9 9 0 1 0 0 18c1.6 0 2-1.2 1.2-2.1-.8-.9-.5-2.1.7-2.1H16a5 5 0 0 0 5-5c0-4.4-4-6.7-9-6.7z"/><circle cx="7.5" cy="11" r="1"/><circle cx="12" cy="8" r="1"/><circle cx="16" cy="10.5" r="1"/></symbol>
  <symbol id="i-wrench" viewBox="0 0 24 24" fill="none" stroke="currentColor" stroke-width="2" stroke-linecap="round" stroke-linejoin="round"><path d="M14.5 6a3.5 3.5 0 0 0 4.6 4.4L21 12l-8.5 8.5a2.1 2.1 0 0 1-3-3L18 9a3.5 3.5 0 0 0-4.4-4.6z"/></symbol>
</svg>
